<svg xmlns="http://www.w3.org/2000/svg" width="176.459" height="164" viewBox="0 0 176.459 164">
  <g id="Group_12" data-name="Group 12" transform="translate(-69.771 -600)">
    <g id="Group_1" data-name="Group 1" transform="translate(-754.774 69.042)">
      <rect id="Rectangle_4" data-name="Rectangle 4" width="31.194" height="31.194" transform="translate(868.659 553.016) rotate(45)" fill="#007ae1" opacity="0.6"/>
      <path id="Rectangle_11" data-name="Rectangle 11" d="M0,0H31.194V31.194H4a4,4,0,0,1-4-4Z" transform="translate(846.602 575.073) rotate(45)" fill="#007ae1" opacity="0.8"/>
      <rect id="Rectangle_7" data-name="Rectangle 7" width="31.194" height="31.194" transform="translate(912.774 553.016) rotate(45)" fill="#007ae1" opacity="0.6"/>
      <rect id="Rectangle_9" data-name="Rectangle 9" width="31.194" height="31.194" transform="translate(890.716 575.073) rotate(45)" fill="#007ae1" opacity="0.8"/>
      <path id="Rectangle_13" data-name="Rectangle 13" d="M0,0H31.194V27.194a4,4,0,0,1-4,4H0Z" transform="translate(912.774 597.131) rotate(45)" fill="#007ae1"/>
      <path id="Rectangle_14" data-name="Rectangle 14" d="M0,0H31.194V27.194a4,4,0,0,1-4,4H0Z" transform="translate(868.659 597.131) rotate(45)" fill="#007ae1"/>
      <path id="Rectangle_15" data-name="Rectangle 15" d="M0,0H31.194V27.194a4,4,0,0,1-4,4H0Z" transform="translate(956.889 597.131) rotate(45)" fill="#007ae1"/>
      <rect id="Rectangle_10" data-name="Rectangle 10" width="31.194" height="31.194" transform="translate(934.831 575.073) rotate(45)" fill="#007ae1" opacity="0.8"/>
      <path id="Rectangle_12" data-name="Rectangle 12" d="M0,0H27.194a4,4,0,0,1,4,4V31.194H0Z" transform="translate(978.946 575.073) rotate(45)" fill="#007ae1" opacity="0.8"/>
      <rect id="Rectangle_8" data-name="Rectangle 8" width="31.194" height="31.194" transform="translate(956.889 553.016) rotate(45)" fill="#007ae1" opacity="0.6"/>
      <path id="Rectangle_5" data-name="Rectangle 5" d="M3,0H31.194V31.194H0V3A3,3,0,0,1,3,0Z" transform="translate(890.716 530.958) rotate(45)" fill="#007ae1" opacity="0.4"/>
      <path id="Rectangle_6" data-name="Rectangle 6" d="M3,0H31.194V31.194H0V3A3,3,0,0,1,3,0Z" transform="translate(934.831 530.958) rotate(45)" fill="#007ae1" opacity="0.4"/>
    </g>
    <path id="Path_295" data-name="Path 295" d="M-53.75-7.7V-35h-8V0h20.5V-7.7ZM-14.5,0h8.75l-11.9-35h-10.2L-39.75,0H-31l1.75-5.5h13ZM-26.85-13l4.1-12.85L-18.65-13ZM10.5-35H-2.75V0h8V-11H10.5A12.028,12.028,0,0,0,22.75-23,12.028,12.028,0,0,0,10.5-35Zm0,16.5H5.25v-9H10.5A4.277,4.277,0,0,1,14.75-23,4.277,4.277,0,0,1,10.5-18.5ZM26.75-35V0h8V-35ZM49.85-7.7l13.4-21.1V-35H39.75v7.7H52.9L39.5-6.2V0h24V-7.7Z" transform="translate(156.771 764)" fill="#0c0d0d"/>
  </g>
</svg>
